<svg width="11" height="19" viewBox="0 0 11 19" fill="none" xmlns="http://www.w3.org/2000/svg">
<g opacity="0.4">
<path d="M8.23725 0.325114L8.3629 0.701352L8.48214 0.795406L8.3629 0.767894H8.08762L7.69311 0.827393L7.2986 0.983525L7.10133 1.07758L6.90408 1.2657L6.75972 1.45382L6.67202 1.83006V2.2063V13.1172L6.64406 13.4934V13.8697L6.60818 14.2459L6.57134 14.6221L6.53481 14.9984L6.47401 15.3746L6.41092 15.7509L6.31229 16.1271L6.21366 16.5033L6.07678 16.8796L5.91778 17.2558L5.72052 17.5884L5.67955 17.632L5.42463 18.0083L5.326 18.1023L5.03011 18.3845L4.93148 18.4465L4.53696 18.6862L4.40679 18.7608L4.14245 18.8548L3.74793 18.9838L3.45204 19H3.15615L2.86026 18.9059L2.56437 18.7178V18.5297L2.26849 18.4356L1.89223 18.3845L1.47945 18.2475L0.986302 17.9653L0.789043 17.8713L0.690414 17.6832L0.394526 17.401V17.2129L0.295896 17.1188L0.197267 17.0248V16.9307V16.8366L0.0986372 16.7426L7.71295e-06 16.4604L0.0986372 16.1782L7.71295e-06 16.0842L0.0986424 15.896V15.6139L0 15.5198H0.0986295L0.197278 15.5087L0.591796 15.5319L0.986313 15.7252L0.83981 16.1271L0.819539 16.5033L0.86413 16.8796L0.986314 17.2558L1.22082 17.632L1.38083 17.801L1.77534 18.0083L2.16986 18.1023L2.56438 18.1527L2.9589 18.1721L3.35342 18.1334L3.74793 18.0368L3.81905 18.0083L4.14245 17.8551L4.40679 17.632L4.53697 17.4439L4.6356 17.2558L4.73423 16.8796L4.80402 16.5033L4.86482 16.1271L4.9013 15.7509L4.93149 15.3746L4.95805 14.9984V14.6221L4.97832 14.2459V13.8697V13.4934V9.73105V3.71125V2.2063V1.83006L4.93149 1.64194L4.87698 1.45382L4.53697 1.07758L4.14245 0.889465L3.74794 0.795406L3.28401 0.842692V0.701347L3.35342 0.419168L3.41776 0.325109L3.74794 0.0966361L4.14245 0H4.53697L4.93149 0.0773082L5.32601 0.231049L5.52327 0.325114L5.72053 0.479328L5.81915 0.607287L6.11504 0.325114L6.50956 0.13699L6.90408 0.0231966L7.2986 0L7.69311 0.0231966L8.08763 0.170087L8.23725 0.325114Z" fill="url(#paint0_linear_31_2)"/>
<path d="M8.63869 8.32854L8.23135 8.42672H7.82401L7.72218 8.23036H7.82401L7.92585 8.13218L8.0237 7.93582L8.12952 7.75251L8.22021 7.54311L8.30455 7.1504L8.32603 6.75768L8.31648 6.36497L8.26238 5.97226L8.14463 5.57954L8.12952 5.5481L7.93619 5.18683L7.72218 4.93295L7.56306 4.79412L7.31484 4.63305L6.9075 4.4528L6.73565 4.40141L6.50016 4.34541L6.09282 4.28789L5.68549 4.26258H5.27815L4.87081 4.28942L4.46347 4.33391L4.12535 4.40141L4.05613 4.42058L3.64879 4.55404L3.24145 4.75193L3.17144 4.79412L2.83412 5.04877L2.69011 5.18683L2.42678 5.50668L2.38222 5.57954L2.22311 5.97226L2.14753 6.36497L2.134 6.75768L2.16662 7.1504L2.25414 7.54311L2.42678 7.93582L2.73228 8.32854L2.83412 8.4643L3.10064 8.72125L3.24145 8.84014L3.62413 9.11396L3.64879 9.13007L4.05613 9.37551L4.30674 9.50667L4.46347 9.58414L4.87081 9.76746L5.18825 9.89939L5.27815 9.93697L5.68549 10.0957L6.09282 10.2745L6.13579 10.2921L6.50016 10.4417L6.9075 10.6142L7.069 10.6848L7.31484 10.7983L7.72218 10.9933L7.89057 11.0775L8.12952 11.1986L8.53686 11.4311L8.6005 11.4702L8.94419 11.7149L9.12877 11.863L9.35153 12.0593L9.54247 12.2557L9.75887 12.518L9.85036 12.6484L10.0922 13.0411L10.1662 13.1937L10.2784 13.4338L10.4049 13.8265L10.4773 14.2192L10.5139 14.6119L10.5179 15.0047L10.4717 15.3974L10.4234 15.7901L10.3177 16.1828L10.1591 16.5755L9.93906 16.9682L9.75887 17.219L9.63755 17.3609L9.35153 17.6642L9.2497 17.7536L8.94419 17.99L8.70093 18.1464L8.53686 18.2423L8.12952 18.4348L7.72218 18.5882L7.31484 18.7078L6.9075 18.8029L6.50016 18.8819L6.09282 18.9356L5.68549 18.9732L5.27815 18.9924L4.87081 19.0001L4.46347 18.9862L4.05613 18.9617L3.64879 18.9141L3.24145 18.8413L2.83412 18.7186L2.52861 18.5391V18.3427L2.42678 18.3163L2.01944 18.2888L1.6121 18.1889L1.50449 18.1464L1.20476 17.9909L0.862972 17.7536L0.797423 17.6952L0.491919 17.3609L0.390084 17.2123L0.249686 16.9682L0.1083 16.5755L0.0285816 16.1828L0 15.7901L0.0210546 15.3974L0.106788 15.0047L0.288242 14.6119L0.390077 14.4455L0.571559 14.2192L0.797415 14.012L1.06075 13.8265L1.20475 13.7498L1.61209 13.5926L2.01943 13.4975L2.32494 13.4338L2.42677 13.5381L2.2231 13.8265L2.11331 14.2192L2.04807 14.6119L2.03455 15.0047L2.04489 15.3974L2.08865 15.7901L2.17537 16.1828L2.32494 16.5755L2.42677 16.7435L2.57793 16.9682L2.83411 17.2628L2.9439 17.3609L3.24145 17.5872L3.53422 17.7536L3.64879 17.8081L4.05612 17.9431L4.46346 18.0213L4.8708 18.0551L5.27814 18.042L5.68548 18.0022L6.09282 17.9385L6.50015 17.828L6.71258 17.7536L6.90749 17.6739L7.31483 17.4637L7.47395 17.3609L7.72217 17.1592L7.92584 16.9682L8.12951 16.7251L8.23134 16.5755L8.40558 16.1828L8.49309 15.7901L8.52571 15.3974L8.509 15.0047L8.44058 14.6119L8.30319 14.2192L8.12951 13.9112L8.06891 13.8265L7.72217 13.4338L7.31483 13.0842L7.25812 13.0411L6.90749 12.8009L6.65108 12.6484L6.50015 12.5705L6.09282 12.3638L5.86846 12.2557L5.68548 12.1704L5.27814 11.9954L4.95273 11.863L4.8708 11.832L4.46346 11.6802L4.05612 11.5187L3.94238 11.4702L3.64879 11.339L3.24145 11.142L3.11097 11.0775L2.83411 10.9272L2.42677 10.6848L2.01943 10.3979L1.8802 10.2921L1.61209 10.0543L1.45695 9.89939L1.20475 9.62173L1.1069 9.50667L0.844611 9.11396L0.797415 9.02769L0.65617 8.72125L0.545216 8.32854L0.472022 7.93582L0.436221 7.54311L0.429856 7.1504L0.451958 6.75768L0.513048 6.36497L0.612306 5.97226L0.763345 5.57954L0.797423 5.52695L0.99791 5.18683L1.20476 4.93284L1.32507 4.79412L1.6121 4.51715L1.75579 4.40141L2.01943 4.20505L2.36989 4.00869L2.42678 3.97472L2.83411 3.78933L3.24145 3.63899L3.31465 3.61598L3.64879 3.5224L4.05613 3.4363L4.46347 3.37351L4.87081 3.33029L5.27815 3.29071L5.68548 3.27306L6.19466 3.22327L6.602 3.32144L6.9075 3.3527L7.213 3.41963L7.41667 3.5178L7.53406 3.61598L7.62035 3.71416L7.72218 3.85098L7.74025 4.0087L8.12951 4.05196L8.53685 4.10687L8.94419 4.22628L9.35153 4.4466L9.75887 4.79412L9.99602 5.18684L10.1232 5.57955L10.1839 5.97226V6.36497L10.1232 6.75769L9.96254 7.1504L9.75887 7.54311L9.35153 7.93583L9.04602 8.13218L8.63869 8.32854Z" fill="url(#paint1_linear_31_2)"/>
</g>
<defs>
<linearGradient id="paint0_linear_31_2" x1="4.24107" y1="0" x2="4.24107" y2="20.3571" gradientUnits="userSpaceOnUse">
<stop stop-color="#FB8500"/>
<stop offset="1" stop-color="#FFB703"/>
</linearGradient>
<linearGradient id="paint1_linear_31_2" x1="5.25893" y1="3.22327" x2="5.25893" y2="19.0001" gradientUnits="userSpaceOnUse">
<stop stop-color="#FB8500"/>
<stop offset="0.985671" stop-color="#FFB703"/>
</linearGradient>
</defs>
</svg>
