<svg width="16" height="16" viewBox="0 0 16 16" fill="none" xmlns="http://www.w3.org/2000/svg">
<g opacity="0.3">
<path d="M12.5307 0.27378L12.7218 0.590611L12.9032 0.669815L12.7218 0.646646H12.3031L11.7029 0.696751L11.1028 0.82823L10.8027 0.907438L10.5026 1.06585L10.283 1.22427L10.1496 1.5411V1.85793V11.046L10.1071 11.3629V11.6797L10.0525 11.9965L9.99647 12.3134L9.9409 12.6302L9.84841 12.947L9.75244 13.2639L9.6024 13.5807L9.45236 13.8975L9.24413 14.2143L9.00225 14.5312L8.70218 14.8112L8.63986 14.848L8.25207 15.1648L8.10203 15.2441L7.65192 15.4817L7.50188 15.5339L6.90173 15.7357L6.70371 15.7985L6.30159 15.8777L5.70143 15.9864L5.25132 16H4.80121L4.3511 15.9208L3.90098 15.7624V15.6039L3.45087 15.5247L2.8785 15.4817L2.25057 15.3663L1.50039 15.1287L1.20031 15.0495L1.05027 14.8911L0.600161 14.6534V14.495L0.450124 14.4158L0.300086 14.3366V14.2574V14.1782L0.150049 14.099L1.17331e-05 13.8614L0.150049 13.6237L1.17331e-05 13.5445L0.150057 13.3861V13.1485L0 13.0693H0.150037L0.300103 13.0599L0.900253 13.0795L1.5004 13.2422L1.27754 13.5807L1.2467 13.8975L1.31453 14.2143L1.5004 14.5312L1.85714 14.848L2.10054 14.9903L2.70069 15.1648L3.30084 15.2441L3.90099 15.2865L4.50114 15.3028L5.10129 15.2702L5.70144 15.1888L5.80962 15.1648L6.30159 15.0358L6.70371 14.848L6.90174 14.6896L7.05178 14.5312L7.20181 14.2143L7.30798 13.8975L7.40048 13.5807L7.45597 13.2639L7.50189 12.947L7.5423 12.6302V12.3134L7.57313 11.9965V11.6797V11.3629V8.19456V3.12526V1.85793V1.5411L7.50189 1.38268L7.41897 1.22427L6.90174 0.907438L6.30159 0.749022L5.70144 0.669815L4.9957 0.709634V0.590607L5.1013 0.352983L5.19918 0.273776L5.70144 0.0813777L6.30159 0H6.90174L7.50189 0.0651016L8.10204 0.194568L8.40211 0.27378L8.70219 0.403644L8.85223 0.511399L9.30234 0.27378L9.90249 0.11536L10.5026 0.019534L11.1028 0L11.7029 0.019534L12.3031 0.143231L12.5307 0.27378Z" fill="url(#paint0_linear_13_31)"/>
<path d="M13.1414 7.0134L12.5217 7.09608H11.9021L11.7472 6.93073H11.9021L12.057 6.84805L12.2058 6.6827L12.3668 6.52832L12.5048 6.35199L12.6331 6.02129L12.6657 5.69058L12.6512 5.35988L12.5689 5.02917L12.3898 4.69846L12.3668 4.67198L12.0727 4.36776L11.7472 4.15396L11.5051 4.03705L11.1275 3.90141L10.5078 3.74963L10.2464 3.70635L9.88819 3.6592L9.26854 3.61075L8.64889 3.58944H8.02923L7.40958 3.61205L6.78993 3.64951L6.27557 3.70635L6.17028 3.7225L5.55062 3.83489L4.93097 4.00153L4.82447 4.03705L4.31132 4.2515L4.09226 4.36776L3.69167 4.6371L3.62389 4.69846L3.38184 5.02917L3.26687 5.35988L3.24629 5.69058L3.29591 6.02129L3.42904 6.35199L3.69167 6.6827L4.15641 7.0134L4.31132 7.12773L4.71676 7.34411L4.93097 7.44422L5.51311 7.67481L5.55062 7.68838L6.17028 7.89507L6.55151 8.00552L6.78993 8.07075L7.40958 8.22513L7.89248 8.33622L8.02923 8.36787L8.64889 8.50157L9.26854 8.65207L9.33389 8.66693L9.88819 8.79288L10.5078 8.93821L10.7535 8.99763L11.1275 9.09323L11.7472 9.25744L12.0033 9.32834L12.3668 9.43026L12.9865 9.6261L13.0833 9.65904L13.6061 9.86509L13.8869 9.98975L14.2258 10.1551L14.5162 10.3205L14.8454 10.5414L14.9846 10.6512L15.3525 10.9819L15.4651 11.1104L15.6357 11.3126L15.8281 11.6433L15.9383 11.974L15.9939 12.3047L16 12.6354L15.9298 12.9661L15.8563 13.2968L15.6955 13.6275L15.4543 13.9582L15.1195 14.2889L14.8454 14.5001L14.6609 14.6196L14.2258 14.875L14.0708 14.9503L13.6061 15.1494L13.2361 15.281L12.9865 15.3618L12.3668 15.5239L11.7472 15.6531L11.1275 15.7538L10.5078 15.8339L9.88819 15.9005L9.26854 15.9457L8.64889 15.9773L8.02923 15.9935L7.40958 15.9999L6.78993 15.9883L6.17028 15.9676L5.55062 15.9276L4.93097 15.8662L4.31132 15.7629L3.84658 15.6117V15.4464L3.69167 15.4241L3.07202 15.401L2.45236 15.3169L2.28867 15.281L1.83271 15.1501L1.31277 14.9503L1.21306 14.9011L0.748318 14.6196L0.593405 14.4945L0.379828 14.2889L0.164748 13.9582L0.043479 13.6275L0 13.2968L0.0320287 12.9661L0.162448 12.6354L0.438481 12.3047L0.593394 12.1646L0.869468 11.974L1.21305 11.7994L1.61364 11.6433L1.8327 11.5787L2.45235 11.4463L3.072 11.3662L3.53674 11.3126L3.69166 11.4004L3.38183 11.6433L3.21481 11.974L3.11557 12.3047L3.095 12.6354L3.11073 12.9661L3.1773 13.2968L3.30921 13.6275L3.53674 13.9582L3.69166 14.0997L3.92161 14.2889L4.31131 14.5369L4.47832 14.6196L4.93096 14.8102L5.37634 14.9503L5.55061 14.9962L6.17027 15.1099L6.78992 15.1757L7.40957 15.2042L8.02922 15.1932L8.64888 15.1596L9.26853 15.106L9.88818 15.013L10.2113 14.9503L10.5078 14.8832L11.1275 14.7062L11.3695 14.6196L11.7471 14.4497L12.057 14.2889L12.3668 14.0842L12.5217 13.9582L12.7868 13.6275L12.9199 13.2968L12.9695 12.9661L12.9441 12.6354L12.84 12.3047L12.631 11.974L12.3668 11.7146L12.2746 11.6433L11.7471 11.3126L11.1275 11.0182L11.0412 10.9819L10.5078 10.7796L10.1178 10.6512L9.88818 10.5855L9.26853 10.4115L8.92724 10.3205L8.64888 10.2487L8.02922 10.1013L7.53421 9.98975L7.40957 9.96369L6.78992 9.83587L6.17027 9.69985L5.99723 9.65904L5.55061 9.54852L4.93096 9.38259L4.73248 9.32834L4.31131 9.20174L3.69166 8.99763L3.072 8.75606L2.86021 8.66693L2.45235 8.4667L2.21635 8.33622L1.8327 8.1024L1.68384 8.00552L1.28484 7.67481L1.21305 7.60217L0.998181 7.34411L0.829394 7.0134L0.718051 6.6827L0.663589 6.35199L0.653907 6.02129L0.687529 5.69058L0.78046 5.35988L0.931453 5.02917L1.16122 4.69846L1.21306 4.65417L1.51804 4.36776L1.83271 4.15388L2.01572 4.03705L2.45236 3.80381L2.67094 3.70635L3.07201 3.541L3.60512 3.37564L3.69166 3.34704L4.31132 3.19091L4.93097 3.06432L5.04231 3.04494L5.55062 2.96614L6.17028 2.89363L6.78993 2.84075L7.40958 2.80436L8.02923 2.77103L8.64888 2.75616L9.42345 2.71423L10.0431 2.79691L10.5078 2.82323L10.9726 2.87959L11.2824 2.96227L11.461 3.04494L11.5922 3.12762L11.7472 3.24283L11.7746 3.37565L12.3668 3.41208L12.9865 3.45832L13.6061 3.55887L14.2258 3.74441L14.8454 4.03706L15.2062 4.36776L15.3996 4.69847L15.4919 5.02917V5.35988L15.3996 5.69058L15.1552 6.02129L14.8454 6.35199L14.2258 6.6827L13.761 6.84805L13.1414 7.0134Z" fill="url(#paint1_linear_13_31)"/>
</g>
<defs>
<linearGradient id="paint0_linear_13_31" x1="6.45161" y1="0" x2="6.45161" y2="17.1428" gradientUnits="userSpaceOnUse">
<stop stop-color="#FB8500"/>
<stop offset="1" stop-color="#FFB703"/>
</linearGradient>
<linearGradient id="paint1_linear_13_31" x1="8" y1="2.71423" x2="8" y2="15.9999" gradientUnits="userSpaceOnUse">
<stop stop-color="#FB8500"/>
<stop offset="0.985671" stop-color="#FFB703"/>
</linearGradient>
</defs>
</svg>
