<svg width="55" height="55" viewBox="0 0 55 55" fill="none" xmlns="http://www.w3.org/2000/svg">
<path d="M27.625 29.7917L25.1875 32.2292C24.691 32.7257 24.4427 33.3576 24.4427 34.125C24.4427 34.8924 24.691 35.5243 25.1875 36.0208C25.684 36.5174 26.316 36.7656 27.0833 36.7656C27.8507 36.7656 28.4826 36.5174 28.9792 36.0208L36.0208 28.9792C36.5625 28.4375 36.8333 27.8056 36.8333 27.0833C36.8333 26.3611 36.5625 25.7292 36.0208 25.1875L28.9792 18.1458C28.4826 17.6493 27.8507 17.401 27.0833 17.401C26.316 17.401 25.684 17.6493 25.1875 18.1458C24.691 18.6424 24.4427 19.2743 24.4427 20.0417C24.4427 20.809 24.691 21.441 25.1875 21.9375L27.625 24.375H18.9583C18.191 24.375 17.5473 24.635 17.0273 25.155C16.5073 25.675 16.2482 26.3178 16.25 27.0833C16.25 27.8507 16.51 28.4944 17.03 29.0144C17.55 29.5344 18.1928 29.7935 18.9583 29.7917H27.625ZM27.0833 54.1667C23.3368 54.1667 19.816 53.4553 16.5208 52.0325C13.2257 50.6097 10.3594 48.6805 7.92188 46.2448C5.48438 43.8073 3.55514 40.941 2.13417 37.6458C0.713195 34.3507 0.00180556 30.8299 0 27.0833C0 23.3368 0.711389 19.816 2.13417 16.5208C3.55695 13.2257 5.48618 10.3594 7.92188 7.92188C10.3594 5.48438 13.2257 3.55514 16.5208 2.13417C19.816 0.713195 23.3368 0.00180556 27.0833 0C30.8299 0 34.3507 0.711389 37.6458 2.13417C40.941 3.55695 43.8073 5.48618 46.2448 7.92188C48.6823 10.3594 50.6124 13.2257 52.0352 16.5208C53.458 19.816 54.1685 23.3368 54.1667 27.0833C54.1667 30.8299 53.4553 34.3507 52.0325 37.6458C50.6097 40.941 48.6805 43.8073 46.2448 46.2448C43.8073 48.6823 40.941 50.6124 37.6458 52.0352C34.3507 53.458 30.8299 54.1685 27.0833 54.1667ZM27.0833 48.75C33.1319 48.75 38.2552 46.651 42.4531 42.4531C46.651 38.2552 48.75 33.1319 48.75 27.0833C48.75 21.0347 46.651 15.9115 42.4531 11.7135C38.2552 7.51563 33.1319 5.41667 27.0833 5.41667C21.0347 5.41667 15.9115 7.51563 11.7135 11.7135C7.51563 15.9115 5.41667 21.0347 5.41667 27.0833C5.41667 33.1319 7.51563 38.2552 11.7135 42.4531C15.9115 46.651 21.0347 48.75 27.0833 48.75Z" fill="#6200ee"/>
</svg>
