<svg width="14" height="20" viewBox="0 0 14 20" fill="none" xmlns="http://www.w3.org/2000/svg">
<path d="M12.7921 6.78413C13.3527 6.24457 13.7416 5.54587 13.9086 4.7784C14.0755 4.01094 14.0128 3.21004 13.7286 2.47932C13.4444 1.74859 12.9516 1.12167 12.3142 0.679655C11.6768 0.237643 10.924 0.000880969 10.1531 0H3.85124C3.08042 0.000880969 2.3276 0.237643 1.69017 0.679655C1.05274 1.12167 0.560034 1.74859 0.275793 2.47932C-0.00844851 3.21004 -0.0711428 4.01094 0.0958207 4.7784C0.262784 5.54587 0.651722 6.24457 1.21232 6.78413C0.820694 7.15913 0.510524 7.61372 0.301826 8.11854C0.0931279 8.62336 -0.00945944 9.16721 0.000685296 9.71497C0.01083 10.2627 0.133481 10.8022 0.360723 11.2987C0.587964 11.7951 0.914746 12.2374 1.31997 12.5971C0.813188 13.0841 0.433063 13.692 0.21379 14.3661C-0.00548211 15.0402 -0.0570255 15.7593 0.0637963 16.4587C0.184618 17.1581 0.474016 17.816 0.905959 18.373C1.3379 18.9301 1.89885 19.3689 2.53833 19.65C3.17782 19.9312 3.8758 20.0457 4.56949 19.9835C5.26318 19.9213 5.93082 19.6842 6.51237 19.2935C7.09391 18.9029 7.57112 18.3709 7.90108 17.7455C8.23103 17.1201 8.40338 16.4208 8.40262 15.7106V13.1371C9.22762 13.5623 10.175 13.6706 11.0719 13.4424C11.9687 13.2141 12.7552 12.6646 13.2876 11.8939C13.82 11.1233 14.0629 10.1831 13.972 9.24502C13.881 8.3069 13.4622 7.43344 12.7921 6.78413ZM11.9037 3.92765C11.9037 4.40114 11.7192 4.85524 11.391 5.19005C11.0627 5.52486 10.6174 5.71295 10.1531 5.71295H8.40262V2.14236H10.1531C10.6174 2.14236 11.0627 2.33045 11.391 2.66526C11.7192 3.00007 11.9037 3.45416 11.9037 3.92765ZM2.10071 3.92765C2.10071 3.45416 2.28514 3.00007 2.61343 2.66526C2.94172 2.33045 3.38697 2.14236 3.85124 2.14236H6.30198V5.71295H3.85124C3.38697 5.71295 2.94172 5.52486 2.61343 5.19005C2.28514 4.85524 2.10071 4.40114 2.10071 3.92765ZM3.85124 11.4259C3.38697 11.4259 2.94172 11.2378 2.61343 10.903C2.28514 10.5682 2.10071 10.1141 2.10071 9.6406C2.10071 9.16711 2.28514 8.71301 2.61343 8.37821C2.94172 8.0434 3.38697 7.85531 3.85124 7.85531H6.30198V11.4259H3.85124ZM6.30198 15.7106C6.30198 16.1343 6.17878 16.5485 5.94796 16.9008C5.71714 17.2531 5.38907 17.5277 5.00522 17.6899C4.62138 17.852 4.19902 17.8945 3.79153 17.8118C3.38405 17.7291 3.00975 17.5251 2.71597 17.2255C2.42219 16.9259 2.22213 16.5441 2.14107 16.1286C2.06002 15.713 2.10162 15.2822 2.26061 14.8908C2.4196 14.4993 2.68885 14.1647 3.0343 13.9293C3.37974 13.6939 3.78588 13.5683 4.20135 13.5683H6.30198V15.7106ZM10.1531 11.4259C9.80693 11.4259 9.46848 11.3212 9.18061 11.125C8.89273 10.9289 8.66836 10.65 8.53587 10.3238C8.40338 9.99759 8.36871 9.63862 8.43625 9.29231C8.5038 8.94599 8.67052 8.62788 8.91534 8.37821C9.16015 8.12853 9.47207 7.9585 9.81164 7.88961C10.1512 7.82072 10.5032 7.85608 10.823 7.9912C11.1429 8.12633 11.4163 8.35515 11.6087 8.64874C11.801 8.94233 11.9037 9.2875 11.9037 9.6406C11.9037 10.1141 11.7192 10.5682 11.391 10.903C11.0627 11.2378 10.6174 11.4259 10.1531 11.4259Z" fill="#ff7900"/>
</svg>
