<svg width="18" height="18" viewBox="0 0 18 18" fill="none" xmlns="http://www.w3.org/2000/svg">
<path d="M8.74219 7.31372e-07C3.91211 -0.00195239 0 3.9082 0 8.73438C0 12.5508 2.44727 15.7949 5.85547 16.9863C6.31445 17.1016 6.24414 16.7754 6.24414 16.5527V15.0391C3.59375 15.3496 3.48633 13.5957 3.30859 13.3027C2.94922 12.6895 2.09961 12.5332 2.35352 12.2402C2.95703 11.9297 3.57227 12.3184 4.28516 13.3711C4.80078 14.1348 5.80664 14.0059 6.31641 13.8789C6.42773 13.4199 6.66602 13.0098 6.99414 12.6914C4.24805 12.1992 3.10352 10.5234 3.10352 8.53125C3.10352 7.56445 3.42188 6.67578 4.04688 5.95899C3.64844 4.77734 4.08398 3.76563 4.14258 3.61523C5.27734 3.51367 6.45703 4.42774 6.54883 4.5C7.19336 4.32617 7.92969 4.23438 8.75391 4.23438C9.58203 4.23438 10.3203 4.33008 10.9707 4.50586C11.1914 4.33789 12.2852 3.55274 13.3398 3.64844C13.3965 3.79883 13.8223 4.78711 13.4473 5.95313C14.0801 6.67188 14.4023 7.56836 14.4023 8.53711C14.4023 10.5332 13.25 12.2109 10.4961 12.6953C10.732 12.9273 10.9193 13.2039 11.047 13.5091C11.1748 13.8143 11.2405 14.1418 11.2402 14.4727V16.6699C11.2559 16.8457 11.2402 17.0195 11.5332 17.0195C14.9922 15.8535 17.4824 12.5859 17.4824 8.73633C17.4824 3.9082 13.5684 7.31372e-07 8.74219 7.31372e-07Z" fill="#ff7900"/>
</svg>
