<svg width="19" height="35" viewBox="0 0 19 35" fill="none" xmlns="http://www.w3.org/2000/svg">
<g opacity="0.4">
<path d="M15.8802 0.587303L16.1072 1.26696L16.3226 1.43686L16.1072 1.38716H15.6099L14.8972 1.49465L14.1846 1.77669L13.8282 1.9466L13.4719 2.28643L13.2111 2.62626L13.0527 3.30591V3.98557V23.6956L13.0022 24.3752V25.0549L12.9374 25.7345L12.8708 26.4142L12.8048 27.0938L12.695 27.7735L12.581 28.4532L12.4029 29.1328L12.2247 29.8125L11.9774 30.4921L11.6902 31.1718L11.3338 31.7725L11.2598 31.8514L10.7993 32.5311L10.6212 32.701L10.0867 33.2107L9.90848 33.3227L9.19581 33.7557L8.96065 33.8904L8.48314 34.0603L7.77045 34.2934L7.23594 34.3226H6.70143L6.16693 34.1527L5.63242 33.8128V33.473L5.09791 33.3031L4.41822 33.2107L3.67255 32.9633L2.78171 32.4535L2.42537 32.2836L2.2472 31.9438L1.71269 31.434V31.0942L1.53452 30.9243L1.35635 30.7544V30.5845V30.4146L1.17818 30.2447L1.00001 29.7349L1.17818 29.2252L1.00001 29.0553L1.17819 28.7154V28.2057L1 28.0358H1.17817L1.35637 28.0157L2.06905 28.0576L2.78173 28.4067L2.51708 29.1328L2.48046 29.8125L2.56101 30.4921L2.78173 31.1718L3.20536 31.8514L3.4944 32.1566L4.20707 32.5311L4.91975 32.701L5.63243 32.792L6.34511 32.827L7.05778 32.7571L7.77046 32.5825L7.89892 32.5311L8.48314 32.2543L8.96065 31.8514L9.19582 31.5116L9.37399 31.1718L9.55215 30.4921L9.67823 29.8125L9.78807 29.1328L9.85397 28.4532L9.90849 27.7735L9.95648 27.0938V26.4142L9.99309 25.7345V25.0549V24.3752V17.5787V6.70419V3.98557V3.30591L9.9085 2.96609L9.81003 2.62626L9.19582 1.9466L8.48314 1.60678L7.77046 1.43686L6.9324 1.52228V1.26695L7.0578 0.757207L7.17402 0.587294L7.77046 0.174568L8.48314 0H9.19582L9.9085 0.139654L10.6212 0.41738L10.9775 0.587303L11.3339 0.865883L11.512 1.09703L12.0465 0.587303L12.7592 0.247466L13.4719 0.0419035L14.1846 0L14.8972 0.0419035L15.6099 0.307254L15.8802 0.587303Z" fill="#2B825B"/>
<path d="M15.6054 15.0451L14.8695 15.2224H14.1337L13.9497 14.8677H14.1337L14.3177 14.6903L14.4944 14.3356L14.6856 14.0045L14.8494 13.6262L15.0018 12.9168L15.0406 12.2074L15.0233 11.498L14.9256 10.7886L14.7129 10.0791L14.6856 10.0223L14.3363 9.36972L13.9497 8.91109L13.6623 8.6603L13.2139 8.36933L12.4781 8.04372L12.1676 7.95088L11.7422 7.84974L11.0064 7.74582L10.2706 7.70009H9.53472L8.79888 7.74859L8.06304 7.82895L7.45224 7.95088L7.32721 7.98552L6.59137 8.22661L5.85553 8.58409L5.72906 8.6603L5.11969 9.12031L4.85956 9.36972L4.38386 9.9475L4.30337 10.0791L4.01594 10.7886L3.8794 11.498L3.85497 12.2074L3.9139 12.9168L4.07199 13.6262L4.38386 14.3356L4.93573 15.0451L5.11969 15.2903L5.60115 15.7545L5.85553 15.9692L6.54681 16.4639L6.59137 16.493L7.32721 16.9364L7.77992 17.1733L8.06304 17.3132L8.79888 17.6444L9.37232 17.8827L9.53472 17.9506L10.2706 18.2374L11.0064 18.5603L11.084 18.5921L11.7422 18.8623L12.4781 19.1741L12.7698 19.3016L13.2139 19.5066L13.9497 19.8589L14.2539 20.011L14.6856 20.2296L15.4214 20.6497L15.5364 20.7204L16.1573 21.1624L16.4907 21.4298L16.8931 21.7845L17.238 22.1392L17.6289 22.6131L17.7942 22.8486L18.2311 23.5581L18.3648 23.8338L18.5674 24.2675L18.7959 24.9769L18.9267 25.6863L18.9928 26.3957L19 27.1051L18.9166 27.8146L18.8294 28.524L18.6384 29.2334L18.352 29.9428L17.9544 30.6522L17.6289 31.1053L17.4098 31.3616L16.8931 31.9095L16.7091 32.0711L16.1573 32.498L15.7178 32.7805L15.4214 32.9538L14.6856 33.3015L13.9497 33.5786L13.2139 33.7947L12.4781 33.9665L11.7422 34.1093L11.0064 34.2062L10.2706 34.2741L9.53472 34.3088L8.79888 34.3226L8.06304 34.2977L7.32721 34.2534L6.59137 34.1674L5.85553 34.0358L5.11969 33.8141L4.56781 33.4899V33.1352L4.38386 33.0875L3.64802 33.0378L2.91218 32.8574L2.71779 32.7805L2.17634 32.4996L1.55892 32.0711L1.44051 31.9655L0.888628 31.3616L0.704668 31.0932L0.451046 30.6522L0.195638 29.9428L0.0516313 29.2334L0 28.524L0.0380341 27.8146L0.192908 27.1051L0.520696 26.3957L0.704655 26.0951L1.03249 25.6863L1.44049 25.3119L1.9162 24.9769L2.17633 24.8383L2.91217 24.5543L3.64801 24.3825L4.19988 24.2675L4.38384 24.4559L4.01592 24.9769L3.81759 25.6863L3.69974 26.3957L3.67531 27.1051L3.69399 27.8146L3.77304 28.524L3.92969 29.2334L4.19988 29.9428L4.38384 30.2463L4.65691 30.6522L5.11968 31.1843L5.31801 31.3616L5.85552 31.7704L6.3844 32.0711L6.59135 32.1694L7.32719 32.4133L8.06303 32.5546L8.79887 32.6156L9.5347 32.592L10.2705 32.52L11.0064 32.405L11.7422 32.2055L12.1259 32.0711L12.4781 31.927L13.2139 31.5473L13.5013 31.3616L13.9497 30.9972L14.3176 30.6522L14.6856 30.213L14.8695 29.9428L15.1843 29.2334L15.3424 28.524L15.4013 27.8146L15.3711 27.1051L15.2475 26.3957L14.9993 25.6863L14.6856 25.1298L14.5761 24.9769L13.9497 24.2675L13.2139 23.636L13.1114 23.5581L12.4781 23.1242L12.0149 22.8486L11.7422 22.7079L11.0064 22.3346L10.6011 22.1392L10.2705 21.9852L9.5347 21.6691L8.94688 21.4298L8.79887 21.3739L8.06303 21.0997L7.32719 20.8079L7.12172 20.7204L6.59135 20.4833L5.85552 20.1274L5.61982 20.011L5.11968 19.7394L4.38384 19.3016L3.64801 18.7833L3.3965 18.5921L2.91217 18.1626L2.63192 17.8827L2.17633 17.3811L1.99956 17.1733L1.52575 16.4639L1.44049 16.308L1.18534 15.7545L0.984906 15.0451L0.852685 14.3356L0.788012 13.6262L0.776514 12.9168L0.816441 12.2074L0.926797 11.498L1.1061 10.7886L1.37894 10.0791L1.44051 9.98412L1.80268 9.36972L2.17634 8.9109L2.39367 8.6603L2.91217 8.15996L3.17174 7.95088L3.64801 7.59617L4.28109 7.24147L4.38385 7.1801L5.11969 6.84519L5.85553 6.57362L5.98775 6.53205L6.59136 6.36301L7.3272 6.20747L8.06304 6.09404L8.79888 6.01596L9.53471 5.94447L10.2706 5.91258L11.1903 5.82263L11.9262 5.99999L12.4781 6.05645L13.0299 6.17735L13.3979 6.3547L13.6099 6.53205L13.7658 6.70941L13.9497 6.95656L13.9824 7.24147L14.6856 7.31963L15.4214 7.41883L16.1572 7.63452L16.8931 8.03253L17.6289 8.66031L18.0573 9.36972L18.2871 10.0791L18.3967 10.7886V11.498L18.2871 12.2074L17.9968 12.9168L17.6289 13.6262L16.8931 14.3356L16.3412 14.6904L15.6054 15.0451Z" fill="#2B825B"/>
</g>
</svg>
