<svg width="87" height="18" viewBox="0 0 87 18" fill="none" xmlns="http://www.w3.org/2000/svg">
<path d="M72.9888 0.0074984V2.87782H66.9774V17.9787H63.9715V2.87799H57.8349V0.0074984H72.9888ZM73.6645 16.2668C73.8763 16.2668 74.0615 16.3449 74.2183 16.5015C74.3773 16.658 74.4565 16.8454 74.4587 17.0637C74.4584 17.207 74.4196 17.3474 74.3466 17.4695C74.2751 17.5901 74.1748 17.69 74.0554 17.7599C73.9373 17.8323 73.8021 17.8701 73.6645 17.869C73.4443 17.869 73.2571 17.7907 73.1004 17.6343C72.9436 17.4777 72.8659 17.2882 72.8679 17.0637C72.8661 16.8454 72.9436 16.658 73.1004 16.5015C73.2571 16.3449 73.4443 16.2668 73.6645 16.2668ZM14.0892 17.9787L3.00592 3.84127V17.9714H0V0H3.75714L17.7597 17.8443L17.7599 2.87799L17.7587 0.0074984H32.9123V2.87782H20.7656V7.49544H30.5341V10.3659H20.7656V15.1084H32.9125V17.9787H14.0892ZM42.5459 10.3386L44.5158 12.8519L40.4793 18H36.5346L42.5459 10.3386ZM40.4793 0.0149968L45.5651 6.49675L50.6349 0.0348763L54.5685 0.0287729L47.5345 9.0068L54.5799 17.9862H50.6349L36.5458 0.0149968H40.4793ZM78.7946 10.2983H80.1265V15.5646C80.1246 16.0485 80.0225 16.4623 79.8232 16.8105C79.6215 17.1584 79.3423 17.4242 78.9841 17.6117C78.6276 17.7968 78.2101 17.8917 77.7355 17.8917C77.3017 17.8917 76.9129 17.8115 76.5666 17.6549C76.2203 17.4983 75.9456 17.2636 75.7439 16.9546C75.54 16.6458 75.4402 16.2605 75.4402 15.7993H76.7744C76.7765 16.0011 76.8212 16.176 76.9066 16.3225C76.9908 16.467 77.1139 16.5835 77.2611 16.658C77.4137 16.7364 77.5891 16.7755 77.7863 16.7755C78.0004 16.7755 78.1836 16.7302 78.3323 16.6374C78.4808 16.5467 78.595 16.4109 78.6745 16.2297C78.7518 16.0504 78.7926 15.8281 78.7946 15.5644V10.2983ZM85.6068 12.3577C85.5745 12.0386 85.4318 11.7892 85.1834 11.6122C84.9327 11.433 84.609 11.3446 84.2118 11.3446C83.9331 11.3446 83.6926 11.3878 83.493 11.4722C83.2935 11.5587 83.1387 11.674 83.0327 11.8203C82.927 11.9664 82.874 12.1333 82.8697 12.3207C82.8697 12.4772 82.9064 12.6132 82.9776 12.7264C83.0515 12.845 83.1512 12.9445 83.2689 13.0169C83.3967 13.0994 83.5334 13.1664 83.6763 13.2165C83.8269 13.2701 83.9778 13.3154 84.1283 13.3526L84.8228 13.5276C85.102 13.5936 85.3728 13.682 85.6315 13.7953C85.8899 13.9066 86.1242 14.0487 86.3298 14.2196C86.5356 14.3905 86.6986 14.5964 86.8187 14.8374C86.9388 15.0784 87 15.3606 87 15.686C87 16.1245 86.8901 16.5097 86.668 16.8433C86.4461 17.175 86.1263 17.4345 85.7067 17.6219C85.2892 17.8073 84.784 17.902 84.1895 17.902C83.6152 17.902 83.1142 17.8113 82.6925 17.6301C82.269 17.451 81.939 17.1872 81.7006 16.8412C81.4624 16.4953 81.3341 16.0731 81.3158 15.5768H82.6357C82.6539 15.8363 82.7355 16.0525 82.874 16.2276C83.0143 16.4006 83.1977 16.5282 83.4218 16.6147C83.6478 16.6993 83.9003 16.7425 84.1793 16.7425C84.4705 16.7425 84.7271 16.6972 84.949 16.6086C85.1691 16.52 85.3421 16.3966 85.4665 16.2358C85.5927 16.0771 85.6559 15.8898 85.658 15.6757C85.6559 15.48 85.5987 15.3173 85.4887 15.1895C85.3767 15.0618 85.2219 14.9548 85.0243 14.8683C84.825 14.7818 84.5927 14.7035 84.328 14.6357L83.4848 14.4173C82.8758 14.2586 82.3932 14.0178 82.0408 13.6943C81.6865 13.371 81.5114 12.9428 81.5114 12.4051C81.5114 11.9645 81.6294 11.5772 81.8679 11.2455C82.104 10.9142 82.4279 10.6566 82.8373 10.4733C83.2485 10.288 83.713 10.1973 84.2301 10.1973C84.7557 10.1973 85.2158 10.288 85.6131 10.4733C86.01 10.6566 86.3218 10.9119 86.5477 11.2373C86.7738 11.5629 86.8921 11.9355 86.8982 12.3577H85.6068Z" fill="#ff7900"/>
</svg>
