<svg width="36" height="36" viewBox="0 0 36 36" fill="none" xmlns="http://www.w3.org/2000/svg">
<path d="M18 0C13.2261 0 8.64773 1.89642 5.27208 5.27208C1.89642 8.64773 0 13.2261 0 18C0 22.7739 1.89642 27.3523 5.27208 30.7279C8.64773 34.1036 13.2261 36 18 36C22.7739 36 27.3523 34.1036 30.7279 30.7279C34.1036 27.3523 36 22.7739 36 18C36 13.2261 34.1036 8.64773 30.7279 5.27208C27.3523 1.89642 22.7739 0 18 0ZM24.92 23.9C24.92 26.84 23.32 30.5 16.8 33.3C17.4 24.96 11.76 25.92 10.4 23.3C10.5239 22.2161 10.9185 21.1808 11.5477 20.2895C12.1768 19.3983 13.0202 18.6797 14 18.2C10.8963 17.6677 8.00185 16.2827 5.64 14.2C5.74 15.14 6.198 16.008 6.92 16.62C5.35582 16.0304 4.00432 14.9854 3.04 13.62C3.99355 10.4728 5.90064 7.69925 8.49795 5.6823C11.0953 3.66535 14.2547 2.50449 17.54 2.36C15.86 5.12 14.54 10.62 17.54 13.5C14.46 14 12.52 10 10.82 11.58C8.56 13.7 11.48 16.6 17.66 17.74C24.24 18.92 24.98 20.9 24.92 23.9ZM27.6 15.9C26.96 13.68 28.84 11.44 30.98 9.62C32.3165 11.5464 33.1672 13.7675 33.4597 16.0938C33.7523 18.4201 33.4779 20.7827 32.66 22.98C31.12 19.2 28.32 18.34 27.6 15.84V15.9Z" fill="#2B825B"/>
</svg>
