<svg width="45" height="40" viewBox="0 0 45 40" fill="none" xmlns="http://www.w3.org/2000/svg">
<path d="M36.9268 12.9515C36.4489 12.7876 35.9669 12.6356 35.4812 12.4959C35.5628 12.1626 35.6379 11.8333 35.7046 11.5098C36.799 6.19734 36.0835 1.91751 33.6398 0.50839C31.2968 -0.842487 27.4651 0.56611 23.5953 3.934C23.2139 4.26652 22.8409 4.60862 22.4768 4.95997C22.2331 4.72633 21.985 4.49723 21.7328 4.27278C17.677 0.671724 13.6118 -0.845996 11.1707 0.567162C8.82982 1.92225 8.13667 5.94558 9.12193 10.9803C9.21995 11.479 9.33063 11.975 9.45386 12.468C8.87842 12.6315 8.32316 12.8056 7.79175 12.9908C3.03667 14.6487 0 17.2468 0 19.9417C0 22.7251 3.26 25.5168 8.21263 27.2096C8.61415 27.3463 9.01901 27.4729 9.42684 27.5894C9.29439 28.1204 9.1768 28.655 9.07421 29.1926C8.13491 34.14 8.86842 38.0682 11.203 39.4147C13.6142 40.8052 17.6612 39.3761 21.6018 35.9314C21.9213 35.6513 22.2338 35.3633 22.5389 35.0677C22.9333 35.4481 23.3381 35.8175 23.753 36.1754C27.5702 39.46 31.34 40.7863 33.6723 39.4361C36.0812 38.0415 36.8642 33.8216 35.8477 28.6873C35.7676 28.2851 35.6778 27.8849 35.5784 27.487C35.8626 27.4028 36.1416 27.3161 36.4135 27.2259C41.5623 25.5201 44.9123 22.7622 44.9123 19.9417C44.9123 17.237 41.7775 14.6214 36.9268 12.9515ZM35.8102 25.4049C35.5646 25.4861 35.3126 25.5645 35.0558 25.6408C34.4874 23.8414 33.7204 21.928 32.7816 19.951C33.6774 18.0212 34.4149 16.1322 34.9674 14.3445C35.4268 14.4775 35.8726 14.6177 36.3025 14.7656C40.4586 16.1965 42.9937 18.3117 42.9937 19.9417C42.9937 21.6779 40.2558 23.9317 35.8102 25.4049ZM33.9656 29.06C34.4151 31.3301 34.4791 33.3828 34.1814 34.9875C33.914 36.4294 33.3761 37.3907 32.7109 37.7758C31.2956 38.5951 28.2688 37.5301 25.0044 34.721C24.6185 34.3883 24.2419 34.0449 23.8751 33.6912C25.1407 32.3072 26.4054 30.6982 27.6398 28.9112C29.8111 28.7186 31.8623 28.4035 33.7225 27.9735C33.8121 28.3337 33.8931 28.6959 33.9656 29.06ZM15.3116 37.6342C13.9288 38.1224 12.8274 38.1365 12.1616 37.7526C10.7449 36.9356 10.156 33.7814 10.9593 29.5505C11.0548 29.0505 11.1641 28.5533 11.2872 28.0594C13.1268 28.4665 15.1632 28.7591 17.3395 28.9356C18.5823 30.6842 19.8835 32.2914 21.1949 33.6987C20.9162 33.9684 20.6309 34.2312 20.3393 34.4868C18.5967 36.01 16.8505 37.0907 15.3116 37.6342ZM8.83333 25.3942C6.64333 24.6456 4.83474 23.6728 3.59509 22.6112C2.48105 21.6573 1.91877 20.7101 1.91877 19.9417C1.91877 18.3063 4.35684 16.2203 8.42333 14.8026C8.91684 14.6307 9.43333 14.4684 9.9693 14.3161C10.5314 16.1442 11.2686 18.0556 12.1582 19.9884C11.257 21.9498 10.5093 23.8917 9.94175 25.7414C9.56949 25.6347 9.19991 25.519 8.83333 25.3942ZM11.0049 10.6117C10.1609 6.29821 10.7214 3.04436 12.1321 2.22769C13.6346 1.35786 16.957 2.59804 20.4589 5.70751C20.6873 5.91074 20.912 6.11808 21.1328 6.32944C19.8279 7.73067 18.5386 9.32593 17.3068 11.0642C15.1946 11.26 13.1726 11.5744 11.3137 11.9956C11.1992 11.537 11.0962 11.0755 11.0049 10.6117ZM30.3781 15.3956C29.939 14.6371 29.4836 13.8883 29.0123 13.1494C30.4453 13.3307 31.8182 13.5712 33.1075 13.8652C32.7205 15.1059 32.2381 16.403 31.6702 17.7328C31.2551 16.9452 30.8243 16.166 30.3781 15.3956ZM22.4777 7.70067C23.3626 8.65944 24.2489 9.72979 25.1207 10.8912C23.3523 10.8077 21.5809 10.8073 19.8125 10.8901C20.6851 9.73944 21.5789 8.6705 22.4777 7.70067ZM14.5267 15.4087C14.086 16.1729 13.6633 16.9473 13.2588 17.7312C12.7002 16.4061 12.2221 15.1031 11.8318 13.8449C13.1132 13.5582 14.4796 13.3238 15.9035 13.1459C15.4269 13.8893 14.9678 14.6439 14.5267 15.4087ZM15.9444 26.874C14.4733 26.7098 13.0863 26.4875 11.8053 26.2086C12.2018 24.9279 12.6904 23.5972 13.2611 22.2437C13.6672 23.0281 14.0917 23.803 14.5342 24.5675C14.9893 25.3535 15.4605 26.1233 15.9444 26.874ZM22.5307 32.3179C21.6212 31.3368 20.7142 30.2514 19.8284 29.084C20.6884 29.1177 21.5651 29.1349 22.4561 29.1349C23.3716 29.1349 24.2765 29.1144 25.1672 29.0747C24.2926 30.2631 23.4097 31.3501 22.5307 32.3179ZM31.6882 22.1745C32.2886 23.543 32.7946 24.8666 33.1963 26.1254C31.8942 26.4226 30.4882 26.6619 29.0068 26.8396C29.4815 26.0871 29.9412 25.3252 30.3856 24.5544C30.8374 23.7708 31.2717 22.9774 31.6882 22.1745ZM28.7237 23.5958C28.0434 24.7776 27.3248 25.937 26.5691 27.0721C25.2003 27.169 23.8284 27.2172 22.4561 27.2165C21.0584 27.2165 19.6989 27.173 18.3898 27.088C17.6144 25.9556 16.8821 24.7941 16.1946 23.6063C15.5102 22.4247 14.8712 21.2176 14.2784 19.9875C14.8696 18.7571 15.5069 17.5494 16.1889 16.367L16.1888 16.3672C16.8705 15.1844 17.597 14.0279 18.3665 12.9003C19.7021 12.7993 21.0718 12.7466 22.456 12.7466C23.8465 12.7466 25.2181 12.7998 26.5533 12.9015C27.3151 14.0275 28.0369 15.18 28.7174 16.3568C29.4017 17.5367 30.0474 18.7385 30.6535 19.9603C30.0536 21.1947 29.4099 22.4072 28.7237 23.5958ZM32.6816 2.1705C34.1854 3.03786 34.7704 6.53558 33.8254 11.1224C33.7651 11.4151 33.6974 11.7131 33.6237 12.0154C31.7602 11.5852 29.7368 11.2654 27.6184 11.0666C26.3844 9.30927 25.1056 7.71155 23.8219 6.32839C24.1584 6.00409 24.5028 5.68821 24.8549 5.38102C28.1707 2.49558 31.2696 1.35629 32.6816 2.1705ZM22.4561 15.9312C24.6711 15.9312 26.4667 17.7268 26.4667 19.9417C26.4667 22.1566 24.6711 23.9523 22.4561 23.9523C20.2412 23.9523 18.4456 22.1566 18.4456 19.9417C18.4456 17.7268 20.2412 15.9312 22.4561 15.9312Z" fill="#2B825B"/>
</svg>
