<svg width="40" height="24" viewBox="0 0 40 24" fill="none" xmlns="http://www.w3.org/2000/svg">
<path d="M20 0C14.6666 0 11.3344 2.66563 10 7.99906C11.9994 5.33313 14.3334 4.33344 16.9994 5C18.5216 5.37938 19.6094 6.48313 20.8141 7.70625C22.7747 9.69594 25.0441 11.9994 30 11.9994C35.3331 11.9994 38.6656 9.33344 40 3.99875C38.0003 6.66625 35.6666 7.66594 33.0003 6.99938C31.4784 6.61969 30.3919 5.51625 29.1856 4.29313C27.2263 2.30344 24.9575 0 20 0ZM10 11.9994C4.66687 11.9994 1.33438 14.6653 0 20C1.99937 17.3325 4.33313 16.3328 6.99938 16.9994C8.52156 17.3791 9.60938 18.4825 10.8141 19.7056C12.7747 21.6953 15.0441 23.9988 20 23.9988C25.3331 23.9988 28.6656 21.3331 30 15.9997C28.0003 18.6656 25.6666 19.6653 23.0003 18.9988C21.4784 18.6194 20.3919 17.5156 19.1856 16.2925C17.2262 14.3028 14.9575 11.9994 10 11.9994Z" fill="#ff7900"/>
</svg>
